<svg xmlns="http://www.w3.org/2000/svg" width="75.824" height="75.054" viewBox="0 0 75.824 75.054"><defs><style>.a{fill:#003255;}.b{fill:#00406a;}.c{fill:#002f49;}</style></defs><path class="a" d="M2747.048,4324.993a18.5,18.5,0,0,0,1.651,3.921l-1.993,2.513a2.063,2.063,0,0,0,.155,2.733l3.432,3.433a2.055,2.055,0,0,0,2.734.154l2.5-1.976a18.156,18.156,0,0,0,4.075,1.724l.374,3.213a2.058,2.058,0,0,0,2.042,1.822h4.856a2.056,2.056,0,0,0,2.041-1.822l.358-3.1a18.307,18.307,0,0,0,4.368-1.765l2.416,1.912a2.064,2.064,0,0,0,2.733-.155l3.433-3.433a2.054,2.054,0,0,0,.154-2.733l-1.878-2.383a17.869,17.869,0,0,0,1.8-4.295l2.9-.333a2.058,2.058,0,0,0,1.822-2.042v-4.856a2.058,2.058,0,0,0-1.822-2.042l-2.855-.333a18.064,18.064,0,0,0-1.725-4.246l1.757-2.221a2.062,2.062,0,0,0-.154-2.733l-3.425-3.424a2.053,2.053,0,0,0-2.733-.155l-2.155,1.708a18.108,18.108,0,0,0-4.466-1.871l-.325-2.789a2.058,2.058,0,0,0-2.042-1.823h-4.856a2.058,2.058,0,0,0-2.042,1.823l-.325,2.789a18.049,18.049,0,0,0-4.579,1.936l-2.237-1.773a2.064,2.064,0,0,0-2.734.155l-3.432,3.432a2.054,2.054,0,0,0-.155,2.733l1.871,2.367a17.72,17.72,0,0,0-1.692,4.287l-2.993.342a2.057,2.057,0,0,0-1.822,2.041v4.857a2.057,2.057,0,0,0,1.822,2.041Zm17.594-13.137a8.029,8.029,0,1,1-8.028,8.029,8.041,8.041,0,0,1,8.028-8.029Zm0,0" transform="translate(-2742.07 -4297.597)"/><path class="b" d="M2812.65,4326.189l-2.562-2.164a2.028,2.028,0,0,0-2.7.073l-1.415,1.326a14.665,14.665,0,0,0-3.775-1.22l-.4-1.952a2.046,2.046,0,0,0-2.164-1.627l-3.343.285a2.037,2.037,0,0,0-1.863,1.96l-.065,1.985a14.684,14.684,0,0,0-3.6,1.9l-1.692-1.122a2.032,2.032,0,0,0-2.676.382l-2.164,2.578a2.027,2.027,0,0,0,.073,2.7l1.481,1.578a15.116,15.116,0,0,0-1.09,3.611l-2.115.432a2.045,2.045,0,0,0-1.627,2.163l.285,3.343a2.035,2.035,0,0,0,1.96,1.863l2.286.073a14.871,14.871,0,0,0,1.618,3.091l-1.277,1.928a2.033,2.033,0,0,0,.382,2.676l2.563,2.164a2.027,2.027,0,0,0,2.7-.073l1.676-1.57a14.657,14.657,0,0,0,3.441,1.122l.463,2.294a2.046,2.046,0,0,0,2.164,1.627l3.343-.285a2.037,2.037,0,0,0,1.863-1.96l.073-2.245a15.04,15.04,0,0,0,3.441-1.741l1.847,1.22a2.031,2.031,0,0,0,2.675-.382l2.164-2.562a2.027,2.027,0,0,0-.073-2.7l-1.489-1.578a14.658,14.658,0,0,0,1.172-3.628l2.033-.414a2.046,2.046,0,0,0,1.627-2.164l-.285-3.343a2.037,2.037,0,0,0-1.96-1.863l-2.042-.065a14.742,14.742,0,0,0-1.7-3.351l1.115-1.676a2.023,2.023,0,0,0-.366-2.684Zm-12.6,19.327a6.571,6.571,0,1,1,5.995-7.1,6.573,6.573,0,0,1-5.995,7.1Zm0,0" transform="translate(-2742.07 -4297.597)"/><path class="c" d="M2758.745,4354.512a2.032,2.032,0,0,0-1.822,2l-.025,2.058a2.029,2.029,0,0,0,1.774,2.042l1.513.2a11.758,11.758,0,0,0,1.073,2.627l-.976,1.2a2.028,2.028,0,0,0,.122,2.7l1.44,1.472a2.031,2.031,0,0,0,2.7.187l1.213-.936a11.861,11.861,0,0,0,2.7,1.18l.163,1.562a2.032,2.032,0,0,0,2,1.822l2.057.024a2.027,2.027,0,0,0,2.042-1.773l.187-1.481a12.223,12.223,0,0,0,2.929-1.138l1.138.919a2.03,2.03,0,0,0,2.7-.122l1.472-1.44a2.03,2.03,0,0,0,.187-2.7l-.87-1.13a11.779,11.779,0,0,0,1.236-2.847l1.35-.138a2.034,2.034,0,0,0,1.823-2l.024-2.058a2.027,2.027,0,0,0-1.773-2.042l-1.318-.171a12.259,12.259,0,0,0-1.114-2.847l.821-1.008a2.028,2.028,0,0,0-.122-2.7l-1.44-1.472a2.029,2.029,0,0,0-2.7-.187l-.984.756a11.993,11.993,0,0,0-2.961-1.285l-.13-1.277a2.032,2.032,0,0,0-2-1.822l-2.058-.025a2.028,2.028,0,0,0-2.042,1.774l-.163,1.269a12.264,12.264,0,0,0-3.066,1.252l-1.017-.829a2.027,2.027,0,0,0-2.7.122l-1.481,1.447a2.032,2.032,0,0,0-.187,2.7l.871,1.123a11.846,11.846,0,0,0-1.164,2.847Zm13.283-2.327a5.353,5.353,0,1,1-5.418,5.288,5.357,5.357,0,0,1,5.418-5.288Zm0,0" transform="translate(-2742.07 -4297.597)"/></svg>