<svg xmlns="http://www.w3.org/2000/svg" width="90.112" height="90.111" viewBox="0 0 90.112 90.111"><defs><style>.a{fill:#002037;}.b{fill:none;stroke:#002037;stroke-miterlimit:10;}</style></defs><g transform="translate(0.5 0.5)"><g transform="translate(-3500.751 -4819.103)"><path class="a" d="M3566.42,4824.7c-.117-.066-.229-.126-.334-.181l-.307-.177.183.094.033.018.009.006.47.255a.458.458,0,0,1,.06.032l.161.1,0,0-.271-.149m-1.646-.858-.443-.218c.095.044.187.088.274.13.053.026.078.036.1.047.163.081.332.162.495.247l-.427-.206m-.9-.433-.316-.154-.211-.088c-.219-.1-.44-.2-.663-.294l-.167-.079c.185.075.38.164.459.2l-.085-.039c.073.035.15.069.227.1l.072.03.19.085-.02-.01c.148.065.288.129.423.193l.044.018.5.249c-.15-.07-.3-.143-.455-.215m24.516,29.346c-.053-.225-.108-.45-.165-.676l.188.636a.179.179,0,0,1,0,.032.164.164,0,0,1-.016.046l-.009-.038m-.451-1.608-.229-.819c-.146-.451-.333-.965-.527-1.483l-.148-.447-.438-1.109a27.686,27.686,0,0,1,1.113,3.039l.33,1.115-.1-.3m-16.8-23.485q-.849-.606-1.722-1.174l-.057-.039q.91.589,1.788,1.219l-.009-.006m-2.172-1.464c-.019-.014-.037-.026-.057-.039v0c-.037-.026-.037-.026-.042-.026l-.008-.011c.12.079.22.142.329.21l.171.12c-.129-.083-.262-.169-.393-.251m.222.131-.009,0,.014.008-.005,0m-.133-.073q1.057.674,2.083,1.406c-.667-.469-1.436-.969-2.083-1.406m20.659,33.964,0,.048v0l0-.044m.073.986,0,.026v.007a.2.2,0,0,1,0-.033m-.005-.054v0c0-.052-.008-.1-.012-.155v-.028c0,.082.012.162.017.235l-.005-.054m-.029-.386a.571.571,0,0,1,0-.062c0-.068-.009-.138-.013-.209.007.1.014.209.023.315l-.006-.044m-.027-.383c0,.038.006.076.01.112,0-.039-.006-.074-.01-.112m-.32-2.657-.049-.447.091.627v0c.02.13.034.262.048.394v.032c-.028-.2-.055-.4-.09-.6m-1.009-4.933a.111.111,0,0,0,.014-.078c.036.173.078.353.118.54l-.132-.462m-73.451-22.476c-.332.287-.652.576-.964.866.325-.31.611-.569.964-.866m12.6-1.072c.042-.06.086-.118.126-.179.066-.1.125-.212.191-.315l-.279-.037-.441.186-.214.452c.132,0,.262-.008.393-.011l.224-.1m-.719-.576.032-.023.1-.173c-.072.034-.143.085-.219.121a.627.627,0,0,1-.146.042,2.052,2.052,0,0,0-.383.164c-.063.032-.131.061-.2.09.02.042,0,.1.051.127a.429.429,0,0,0,.146-.014,1.8,1.8,0,0,0,.615-.334m7.8-6.275.415-.089v-.2l-.412-.015c-.1,0-.2.007-.307.009l-.321.237-.207.19.463.015.368-.143m33.371,3.228c-.149-.093-.3-.175-.453-.262l-.08-.025c.093.056.187.111.276.166.2.119.39.238.585.359l.042.01c-.061-.047-.13-.082-.191-.124l.009,0a2.11,2.11,0,0,0-.188-.126m-2.057-1.193c-.153-.083-.311-.165-.47-.246.081.044.167.088.25.132-.088-.047-.177-.092-.266-.138l-.029-.017.175.095-.057-.028c-.365-.19-.748-.381-.951-.485l.018.011c-.289-.145-.566-.275-.789-.378l1.954.967.18.094-.015-.007m.521.278c-.045-.021-.085-.045-.129-.069l-.064-.035-.268-.143.473.255-.012-.008m-13.485-4.72c-.095-.023-.341-.071-.376-.071l.06.015-.031,0c-.392-.082-.558-.109-.558-.109a3.264,3.264,0,0,1,.361.084l-.1-.02-.245-.052-.062-.014c-.043-.007-.087-.015-.132-.024a1.235,1.235,0,0,0,.128.028l-.009,0-.074-.013-.047,0c.412.08.549.114.655.139a3.408,3.408,0,0,0-.806-.141c.019.007.307.076.543.116l.026,0a1.312,1.312,0,0,0,.131.024l-.045-.017a3.318,3.318,0,0,1,.339.066l-.133-.01.264.062c.095.019.189.044.286.058h.1c.127.013.24.1.376.067-.074-.026-.154-.041-.23-.064a1.541,1.541,0,0,0,.187.033c-.168-.059-.349-.076-.516-.13h.006l-.088-.023m.034.11-.058-.014.06.016,0,0m2.876.7-.115-.039c-.257-.073-.514-.13-.768-.206-.045-.005-.091-.009-.137-.013-.279-.084-.566-.152-.85-.228-.044-.01-.447-.1-.588-.129l.086.031a1.978,1.978,0,0,1-.214-.04c-.095-.026-.194-.052-.288-.075-.31-.025-.6-.136-.907-.183h-.018c.1.029.211.052.314.078.038.01.076.018.113.029a5.206,5.206,0,0,1,.535.141,1.609,1.609,0,0,1-.356-.081c-.038-.01-.073-.021-.111-.029l-.119-.03-.112-.029a1.486,1.486,0,0,0-.266-.056c.092.033.189.056.284.086h-.06l-.187-.048c-.086-.023-.17-.052-.258-.072a.989.989,0,0,0,.165.053c-.035,0-.077,0-.121,0l.008.019c.481.136.976.228,1.452.394a3.433,3.433,0,0,0-.614-.156c.276.076.546.18.833.23-.022-.018-.022-.018-.3-.107.187,0,.344.124.532.13h.037l.026,0s-.283-.114-.393-.147l-.18-.053.02,0c.16.041.16.041.443.127l.09.006-.122-.047.1.025c.1.027.2.063.295.086l.091.03a.26.26,0,0,1-.065-.005l-.04-.006-.093-.013.04.025c-.017.006-.017.006-.067,0,.012.028.012.028.116.063s.17.06.25.086l.018-.014h.035a.43.43,0,0,0,.15.021c-.022-.021-.022-.022-.134-.074l.007,0a.992.992,0,0,1,.371.144l0,.008a.876.876,0,0,0-.17-.019,1.623,1.623,0,0,0,.523.181,4.831,4.831,0,0,1,.865.263l0-.011s-.763-.32-.855-.365l.022-.01c-.174-.061-.363-.123-.551-.184l.042,0a3.178,3.178,0,0,0-.7-.224c.053.005.106.007.156.01.849.247.849.247,1.5.468l.053,0a1.7,1.7,0,0,0-.2-.1,3.1,3.1,0,0,1,.47.146l.064.007a1.3,1.3,0,0,0-.244-.092,1.089,1.089,0,0,1,.118,0l-.018-.015m33.431,36.337a44.335,44.335,0,0,0-.937-4.472,1.729,1.729,0,0,0-.8-.33,23.32,23.32,0,0,0-2.585-.423,4.253,4.253,0,0,1,.044.829l-.013.07-.018.049-.028,0a.256.256,0,0,0-.141.053l-.038,0-.026.017-.024.032-.059.055-.058-.069-.049-.081c-.062-.057-.072-.058-.083-.059a.909.909,0,0,1-.284-.117l-.037,0-.034,0,.006.082c.177.156.177.156.285.192a.294.294,0,0,1,.1.173l.018.09c.029.063.071.143.1.2a1.875,1.875,0,0,1,.046.208l.019.069.011.089a6.085,6.085,0,0,0,.395,1.013,1.834,1.834,0,0,0,.281.531c.044.013.064.014.086.019l.08-.014c.033-.111-.006-.225.023-.336l.065.116a10.381,10.381,0,0,1,.873,2.333c.009.063.013.087.015.112a10.636,10.636,0,0,0,.725,2.3c.1.436-.069.9.132,1.32a5.033,5.033,0,0,1,.372,1.02l.026.114.461,3.027c-.018.493-.039.94-.069,1.382a1.915,1.915,0,0,0,.144.665.665.665,0,0,0,.165,0c.093-.2.093-.421.194-.614a.341.341,0,0,1,.228-.009l.014,0,.014.078c.027-.074.061-.172.088-.244a.928.928,0,0,1,.371-.7c.016-.08.032-.191.046-.27.032-.2.221-.909.224-.911l.09.076c.009-.541.022-.847.022-.851l.041.037c0-.22,0-.439,0-.658-.02-1.439-.11-2.793-.255-4.129l0,.083c-.029-.222-.054-.443-.09-.664-.034-.289-.067-.538-.1-.789-.015-.079-.028-.157-.044-.236.029.329.029.329.131,1.286l-.047-.063-.019-.012c-.013-.047-.033-.11-.045-.154l-.024-.026c0,.144-.011.286,0,.43a1.634,1.634,0,0,1-.144-.746l0-.08c.024-.053.024-.052.03-.051a.417.417,0,0,0,.075.142.524.524,0,0,0-.032-.326l-.012-.011-.044.013c-.059-.083-.067-.2-.176-.249-.028-.041-.039-.044-.046-.048-.036-.248-.071-.5-.109-.743a12.319,12.319,0,0,1-.7-2.751c.066.021.207.068.527,1.357a6.2,6.2,0,0,0,.471,1.367l.028.03.011.007.012-.076c0-.042.006-.039.006-.037a1.5,1.5,0,0,1,.064.255l.006.03m-.937-4.472a44.659,44.659,0,0,0-8.056-16.2l1.08,1.436a44.811,44.811,0,0,1,6.3,12.428l.7,2.385-.03-.052M3571.614,4832l.33.026-.083-.029h-.038l-.011,0a.753.753,0,0,1-.124-.082l-.08-.1-.03-.008-.042,0-.043,0-.022.028,0,.025.07.093.025.016.051.036m-7.716-7.5c-.164-.1-.328-.205-.5-.306l-.017-.007,0,0-.005.01h0l-.079-.008.059.036c.139.086.28.174.417.261.041,0,.087.01.126.012m8.046,7.525a35.108,35.108,0,0,1,4.631.578,1.43,1.43,0,0,1,.579.23l-.22-.223a42.6,42.6,0,0,0-5.239-4.551l-2.506-1.735-.013-.006c-.128-.081-.571-.362-.868-.543.184.112.2.123.411.262v0l.17.118.026.026c.342.3.828.422,1.081.834l.019.022c-.3-.193-.6-.38-.9-.582l.061,0c-.128-.081-.25-.163-.375-.244a1.718,1.718,0,0,0-.185-.1c-.114-.074-.232-.144-.348-.212h-.033a1.274,1.274,0,0,0-.211-.112.337.337,0,0,1-.061-.007,1.833,1.833,0,0,0,.226.163,1.352,1.352,0,0,1,.143.064c.245.157.478.311.711.469a5.044,5.044,0,0,0,.469.324c.069.039.122.07.351.217.044.028.063.046.083.057.174.153.372.274.556.412l-.15-.066c-.089-.062-.13-.09-.168-.118l-.136-.089-.062.036c.158.149.293.317.451.466v.036c.3.221.615.412.9.649l-.011-.01a.609.609,0,0,1-.227-.07l-.033,0a3.665,3.665,0,0,1-.753-.429,1.116,1.116,0,0,0,.528.453,1.29,1.29,0,0,0,.181.14c.055.038.068.04.081.04a.9.9,0,0,1,.44.26c-.012.041-.067.034-.119.026l.065.063a4.46,4.46,0,0,1-1.265-.817.388.388,0,0,0-.156-.05l-.35-.276c-.582-.469-1.278-.755-1.881-1.194.25.1,1.106.519,1.114.521a2.158,2.158,0,0,0,.27.05c.146.059.276.146.426.193l.057.008.027.005a.689.689,0,0,1-.02-.152,8.813,8.813,0,0,0-2.423-1.472,2.577,2.577,0,0,0-.28-.142.7.7,0,0,0-.292-.109c-.038.022-.042.022-.047.02-.156-.077-.315-.151-.467-.235l-.09-.01a3.115,3.115,0,0,1,.268.178l-.064,0a2.056,2.056,0,0,1-.352-.222l-.081-.053a2.76,2.76,0,0,1-.443-.241l-.093-.01.064.063a4.4,4.4,0,0,1-.462-.151,1.165,1.165,0,0,1-.179-.1l.073,0c-.058-.042-.139-.1-.2-.139a3.147,3.147,0,0,0-.823-.323l.334.2a1,1,0,0,1-.292-.131,1.554,1.554,0,0,1-.126-.092c-.076-.052-.109-.072-.142-.091l-.236-.024a3.515,3.515,0,0,1,.416.259c.064.042.1.065.142.086l.078.044-.03.007a2.9,2.9,0,0,0-.5-.294.577.577,0,0,0-.12-.022l-.276-.166-.072-.019.017.012.053.052-.067.034c.083.073.182.132.271.2l-.01.035a.873.873,0,0,1-.295-.155.345.345,0,0,0-.173-.058l-.041.064a1.033,1.033,0,0,0,.589.3c.092.053.169.106.251.156l-.082,0a2.236,2.236,0,0,0-.375-.1c-.045-.005-.068-.008-.1-.01a2.716,2.716,0,0,1,.472.338c-.334-.132-.645-.316-.97-.463,0,.051.06.1.128.139a2.542,2.542,0,0,1,.584.442c-.1.027-.1.027-.407-.2l.05.07-.055.048c.041.036.1.086.147.122.1.069.23.093.335.17.058.044.091.068.122.093l.055.053a4.674,4.674,0,0,1-.756-.388c.023.075.12.148.22.221-.05,0-.109,0-.157,0,.012.038.012.038.232.2a.526.526,0,0,1-.143.046l.068.127-.03.015a1.037,1.037,0,0,0,.117.147l-.053,0,.037.066a.31.31,0,0,0,.124.034.243.243,0,0,1,.018-.14h.08l-.012-.074a.323.323,0,0,0,.1-.109.489.489,0,0,1,.4.165c-.045-.006-.1-.008-.148-.01l.055.05-.074.017a2.855,2.855,0,0,0,.47.525l-.083.01c0,.007.593.977.713,1.089l-.085-.07c-.035.168-.035.168-.018.214a.435.435,0,0,0-.112.1c.037.041.084.1.12.139l.076.023a.625.625,0,0,1,.172-.01,2.358,2.358,0,0,0,.163.182.927.927,0,0,0-.039.149l-.074.015c.029.123.019.138-.044.205a1.635,1.635,0,0,0,.118.21l-.055.06-.19-.088c-.073-.007-.113-.01-.157-.012l.113.154c.05.039.107.093.155.132l-.019.08-.077.026h-.059l0,0h0c-.064.072-.064.072-.09.2h-.074l-.018.074c.089.1.266.3-.012.3a.346.346,0,0,0-.053.141c.19.187.19.187.21.248l-.049.059c.076.18.248.268.355.419,0,.058-.028.056-.051.054l.02.072c.052.084.1.148.143.212.066.005.136.008.2.012.213-.042.286.185.29.187l-.039.069c.041.069.084.14.132.206l-.063.044c.086.2.086.2.469.25a1.368,1.368,0,0,1,.14.233l-.031.072q.687.034,1.339.071a2.215,2.215,0,0,0-.05-.251l.065-.036.071.025a.339.339,0,0,0-.088-.239c.294.039.6.506.608.51.766.068,1.476.111,2.145.157l.013-.072.072-.014a2.054,2.054,0,0,0-.19-.513c-.041-.049-.073-.084-.1-.118-.133-.144-.16-.176-.428-.152-.2-.22-.5-.328-.669-.579-.223-.258-.445-.511-.67-.761,0-.268-.278-.393-.327-.636l.08-.009c.014-.077.023-.123-.089-.286a.268.268,0,0,1,.138-.035.925.925,0,0,0-.17-.273l.007-.073.076-.009c-.048-.456-.539-.466-.756-.752l.025-.072a3.284,3.284,0,0,0-.3-.324.254.254,0,0,1,.152-.014l.044.007h.006l0,0h.007c.087.051.222.137.4.259l-.025-.075c.1,0,.106,0,.469.245.135.117.239.207.342.3l-.145-.013c.49.43.541.475.557.639a1.21,1.21,0,0,1-.154-.045l-.056.053a5.168,5.168,0,0,0,1.181,1.57l.133.141a9.1,9.1,0,0,0,1.444.922l.031,0a1.008,1.008,0,0,0,.009-.165c.108-.024.209.058.315.036-.009-.042-.022-.1-.031-.14a1.231,1.231,0,0,1,.414,0l-.016-.076a.265.265,0,0,1,.063-.008,3.828,3.828,0,0,0,.339.253l.24.024.116.1.04.068a1.069,1.069,0,0,1-.222,0c0,.119,0,.119.2.52-.2-.019-.324-.19-.5-.252l-.052.064a.689.689,0,0,1-.226-.045l-.048.056.011.073a.648.648,0,0,1-.148-.059l-.064.044a2.644,2.644,0,0,0,.163.284l.018.04m-4.474-.294c-.434-.026-.881-.049-1.339-.072l.006.013c.01.067.01.067.023.086.027.042.076.062.1.1l.049.077a2.482,2.482,0,0,1,.257.013l.063.051a1.937,1.937,0,0,0,.208.159l.119-.047c.1.031.183.108.3.087,0,0,.121-.022.087-.114l.01-.05c.094.006.094.006.12-.015l.027-.08c0-.044-.037-.075-.037-.119l.006-.091m2.745.171c-.663-.052-1.373-.095-2.117-.138.113.15.3.215.417.365l.037.05.008.112a1.455,1.455,0,0,0,.315.3c.263.147.263.147.343.243l.072.1.072.1a1.51,1.51,0,0,0,.508.436.378.378,0,0,1,.169.16c.054.083.055.181.1.265l.033.053c.053.076.12.143.173.217l.526.033c-.216-.374-.216-.374-.181-.469.016-.009.016-.009.072,0l.078.008c.076.019.124.106.215.084.025-.052-.036-.1.007-.153.018-.02.04-.017.124-.011-.064-.1-.139-.211-.214-.317l.277.018a2.022,2.022,0,0,0-.187-.261l-.134-.009c-.128.041-.185-.086-.282-.118-.021-.06-.038-.117-.057-.176-.1-.275-.334-.471-.432-.747l.027-.027-.014-.1.042-.025m18.169,20.759a44.659,44.659,0,0,0-8.056-16.2c-.935-1.1-2.181-2.58-3.174-3.631a1.43,1.43,0,0,0-.579-.23,35.108,35.108,0,0,0-4.631-.578l-.33-.026.081.03h.007l0,0h.014l.1.073a.4.4,0,0,0-.225.108.64.64,0,0,0,.543.327.368.368,0,0,0-.006-.253c.387.053.915.663.918.67-.072.153-.072.153.07.355.026.092-.011.09-.049.085-.061-.021-.061-.021-.5-.383l-.062,0-.161-.209-.123-.01a4.579,4.579,0,0,0,1.035,1.835l.042.107a2.447,2.447,0,0,0-.624-.131c.042.267.3.366.436.563l-.052.023c-.249-.161-.479-.344-.725-.509-.055.027-.055.027-.308.518a2.672,2.672,0,0,0-.272-.005c-.3.343-.616-.2-.718-.376-.054,0-.1-.008-.156-.01-.006.038-.015.085-.023.124-.043-.006-.1-.01-.138-.013a1.83,1.83,0,0,0-.213-.029c-.038.006-.091.01-.131.015.036.074.089.174.13.246-.012.084-.064.081-.119.079-.217-.046-.228-.059-.405-.308l-.092-.012-.161-.01c-.038-.064-.077-.127-.114-.192l-.084-.11a.3.3,0,0,1,.286-.09c.176.05.327.16.5.213l.084-.1c-.141-.3-.457-.852-.459-.855a.3.3,0,0,0-.2-.09c-.074.024-.17.06-.243.088.009.036.023.086.033.12-.026.088-.039.086-.052.086a.407.407,0,0,1-.227-.418c-.051-.08-.088-.137-.124-.191-.574.076-.435-.729-.883-.852-.007.025-.007.025.062.384-.062.037-.151.084-.219.117a.809.809,0,0,0,.144.2.61.61,0,0,0,.048.075c0,.037-.01.087-.011.123l-.106.085c.041.144.041.144.78.991.022.037.041.073.06.11.029.073.071.172.1.245.112.151.256.274.373.42.063.105.1.178.141.252l-.128-.008a2.117,2.117,0,0,1-.282.038l-.107,0a1.634,1.634,0,0,0-.51-.045c0,.038-.007.09-.011.13a.669.669,0,0,0-.207.161c.038.229.038.229-.075.344l-.114-.084c-.047-.006-.082-.009-.113-.01l-.084-.005c-.038.005-.084.009-.125.011a.345.345,0,0,0,.054.209l.234.121c.056.123.117.247.176.372-.24-.017-.285.061-.532.507-.042,0-.073,0-.1,0-.077,0-.176,0-.252-.011a3.752,3.752,0,0,0,.234.7,1.037,1.037,0,0,0-.509.062,3.677,3.677,0,0,0,.128.358c-.121,0-.244-.01-.365-.015-.077-.041-.077-.041-.363-.079-.119-.068-.131-.108-.148-.147a.43.43,0,0,0-.241-.115.769.769,0,0,0,.065.371l.12.051c.031.084.073.2.1.28l.094.121c.02.051.038.1.054.151a1.334,1.334,0,0,1-1-.263c-.511.2-.511.2-.551.26.012.039.027.09.035.127.113.089.146.091.181.091a.66.66,0,0,0,.563.261l.145,0c.261.185.5.386.755.578a6.029,6.029,0,0,1,.248.677c.48.56,1.285,1.5.789,2.028,0,.038.005.09.007.128-.247.189-.247.189-.373.21l-.112-.006a4.554,4.554,0,0,1-1.069-.441c-.422-.034-.752-.045-1.087-.056-.454-.067-.454-.067-.536-.117-.124-.063-.141-.063-.161-.065l-.1.073c.009.038.022.091.029.131a1.2,1.2,0,0,1-.6.09l-.03.126c.348.413.214,1.028.6,1.428.057.278.113.538.16.8,0,.037,0,.087,0,.125-.4.4-.193.729.007,1.049l.084.1a.827.827,0,0,1,.061.2c.007.045.017.091.025.136-.1.173-.1.225.011.632a.983.983,0,0,0,.364.058c.346-.075.655.173,1,.109.061.06.061.06.5.283.14.167.213.384.394.513.015-.045.035-.106.048-.151l-.121-.04a16.7,16.7,0,0,1,2.789-1.382c-.034-.147-.068-.3-.1-.449-.36-.557-.36-.557-.251-1.16.014-.078.031-.184.041-.261.083,0,.186,0,.266-.005a.766.766,0,0,0,.114-.233.692.692,0,0,1,.242-.069l.031-.121c.282-.023.628-.056.628-.056a.676.676,0,0,0-.038-.4l-.035-.132a2.241,2.241,0,0,1-.207-.777c.2-.125.2-.125.636-.032h.048c.44.23.44.23.525.248.148.009.194.009.243.013l.126-.017a1.444,1.444,0,0,1,.055-.518.913.913,0,0,1,.209-.012c.088.008.293.028.406-.386.706.2.858.989,1.42,1.34a.643.643,0,0,1,.317.336c.919.649,2.623,1.857,2.813,2.885-.383.074-.383.074-.425.278a3.323,3.323,0,0,1-1.03-.055c.018.047.048.113.065.165.345.2.54.585.93.729l.539.033q-.072-.258-.141-.517c.137-.095.2-.266.355-.343q-.033-.272-.077-.541a.5.5,0,0,1,.209-.129.452.452,0,0,0,.013-.237,1.69,1.69,0,0,1-.086-.232,2.464,2.464,0,0,1-.277,0,.261.261,0,0,1-.137-.174c-.01-.037-.018-.085-.026-.121a.452.452,0,0,1,.318-.057.915.915,0,0,1,.422.323c.02-.281-.167-.488-.249-.732a2.473,2.473,0,0,1-1.075-.849c-.357-.023-.552-.363-.874-.456-.128-.394-.515-.581-.729-.905a.308.308,0,0,0-.1-.019c-.257-.467-.257-.467-.555-.461a1.842,1.842,0,0,1-.154-.334l.038-.122c.042-.108.034-.129.028-.15-.222-.4-.222-.4-.22-.448.425-.069,2.073,1.618,2.09,1.636a.539.539,0,0,0,.461.253c.028.046.068.106.095.153.289.361.8.451,1.072.838.423.606.536,1.359.919,1.985a1.269,1.269,0,0,1,.249.045,2,2,0,0,1,.262.585c-.068-.006-.131-.01-.2-.014-.01-.04-.024-.091-.033-.129-.036-.013-.086-.03-.122-.04-.014.222.185.446.494.758.026-.047.058-.111.088-.157.378.186.357.619.573.9a.565.565,0,0,0,.235.064l.127,0c.045-.319.045-.319.029-.371s-.031-.112-.046-.158a.568.568,0,0,1-.073-.247l.1-.073a1.37,1.37,0,0,1,.178.173c.095,0,.117.007.143.008.052-.176.052-.176-.074-.538.037,0,.089.01.126.015l.041-.119c-.2-.293-.216-.3-.37-.341a1.688,1.688,0,0,1,.131.407c-.095-.017-.312-.056-1.07-1.22-.044-.13-.059-.175-.075-.219,0-.038.008-.09.012-.128l.1.074c.193.193.193.193.316.22.077,0,.1.006.125.007l.072,0c.013-.148.013-.148-.148-.319a1.106,1.106,0,0,0,.006-.139c.332-.2.513.186.78.238.171.286.171.286.218.326a.7.7,0,0,1,.136.242l-.091.091c.111.379.494.6.567,1a1.282,1.282,0,0,1,.084.256,1.113,1.113,0,0,0,.041.134,2.551,2.551,0,0,0,.217.372l.048.074.047.036.046.073.068.073.046.053a.688.688,0,0,1,.08.292l0,.069.009.088a2.1,2.1,0,0,0,.143.4l.055.071.05.056a.65.65,0,0,0,.009-.219l-.022-.173c-.026-.086-.061-.2-.092-.279-.011-.038-.024-.089-.034-.125,0-.078.017-.077.038-.074l.038.017.054.059.041.067.051.059c.052.066.122.152.171.22l.058.089.046.071.046.039.028,0a.347.347,0,0,1,.185.085,1.083,1.083,0,0,0,.111.028l.02-.033.021-.047-.028-.068-.013-.071a.66.66,0,0,1-.09-.363l0-.068.022-.064a.377.377,0,0,1,.225.09,2.312,2.312,0,0,0,.142.2c.051.064.114.147.167.206l.045.071.043.054.036.023.05.04c.137.015.268.031.4.044-.02-.073-.053-.171-.078-.244l-.024-.086a2.149,2.149,0,0,1-.083-.274l.077.021.02-.013.044.007c.048.025.048.025.237.245a.744.744,0,0,0,.091.025l.02-.032-.011-.064.011-.052.031.024a1.181,1.181,0,0,0,.1.179l.028.067a2.587,2.587,0,0,1,.115.453,2.6,2.6,0,0,0,.2.768l.027.072a.749.749,0,0,1,.114.406l-.015.048.006.07a1.983,1.983,0,0,1,.053.247v.07c-.017.412-.017.412-.044.459l-.015.049-.01.068.01.071c1.143.209,2.017.35,2.6.5a1.729,1.729,0,0,1,.8.33m1.411,8.59-.068-.87v-.008c0-.051,0-.1-.009-.155l0-.018c-.071-.8-.163-1.463-.163-1.467l-.011-.017c.033.282.043.348.051.479.145,1.336.235,2.69.256,4.059l.015.023v-.295c-.007-.238-.02-.475-.018-.712h0c0,.063,0,.123.009.185,0,0-.019-.536-.06-1.205m-.341-3.345-.093-.631c-.268-1.371-.613-3.207-.947-4.562l-.03-.052a44.335,44.335,0,0,1,.937,4.472c.043.243.069.491.118.731l.015.046v0m-27.978-26.251-.012-.024-.129.057c-.046.033-.043.1-.087.132l-.075.021-.007.009.009.092c-.015.059-.068.1-.069.163a.4.4,0,0,0,.051.135l.117.053.07-.048c.005-.012.005-.012.01-.066l.012-.059v-.056l.025-.018c.077,0,.152.009.159-.019l-.016-.043-.029-.055.016-.1,0-.026c-.013-.052-.028-.107-.042-.149m5.753,4.694a1.852,1.852,0,0,0-.12-.235c-.214-.127-.345-.355-.554-.486l-.073.04c.042.058.042.058,0,.262-.088.046-.088.046-.491-.624-.09,0-.181-.01-.274-.013a3.536,3.536,0,0,0-.174-.415c-.118-.143-.314-.184-.442-.312l-.106-.031c-.08-.158-.29-.192-.352-.363-.044-.1-.363-.432-.544-.44-.311-.013-.586-.112-.427-.357-.028-.078-.028-.078-.026-.1a.64.64,0,0,0,.163-.016c-.017-.035-.034-.071-.066-.131-.069-.117.082-.212.032-.328-.073-.139-.144-.277-.219-.416-.289-.011-.579-.022-.872-.058-.007-.089-.007-.089.038-.125.006-.1-.095-.156-.095-.25a1.625,1.625,0,0,0,.1-.209c-.095-.083-.1-.088-.174-.1l-.086,0c-.04,0-.084,0-.146,0-.032.014-.085.039-.382-.008l-.023.02a1.676,1.676,0,0,1,.1.39c.044.128.126.235.177.357-.171.015-.309-.1-.472-.119-.251-.029.031.341.04.359.09.116.261.055.355.164v.075a1.1,1.1,0,0,1,.061.132c.011.1.15.166.106.292-.254.064-.254.064-.117.3a1.54,1.54,0,0,0,.21,0c.018-.021.04-.054.337.182.063,0,.128,0,.19.006a.378.378,0,0,1-.049-.211s.415.381.376.55c-.236.019-.116.141.02.281l.478.019,0-.106c.318.164.392.574.724.726.047.225.047.225.1.279.136.153.152.208.094.278l-.29-.016c-.1-.023-.176-.094-.281-.094l-.063,0-.077,0c-.013.019-.013.019-.032.111l-.011.118a1.438,1.438,0,0,0-.168-.014l.02.112c.191.108.566-.007.582.3a.539.539,0,0,0-.108,0c-.064.077-.064.077-.055.172-.033.03-.044.04-.13.032h-.066c.1.47.306.337.392.279a7.526,7.526,0,0,1,.792.107c.04.013.144.164.053.235-.146.108-.326-.011-.471.087a.557.557,0,0,1-.015.117,1.425,1.425,0,0,0-.275.044.836.836,0,0,1,.1.349.4.4,0,0,1-.247.166c.169.1.169.1.414.015l.088-.083-.013-.085a1.158,1.158,0,0,1,.255.092l.3.014c-.093-.252-.088-.264-.064-.31.767.136.758.026.745-.125l.022-.028c.186.021.3.19.478.223h.061c.122-.049.254.038.375-.021.058-.026.052-.091.044-.179.084-.038.187.023.266-.057-.036-.178-.2-.262-.292-.406l-.029-.077c-.026-.056-.026-.056-.013-.1a.942.942,0,0,1,.167-.014s-.026-.125-.057-.228c.063,0,.127.007.188.008m-5.541-1.805h0l-.048,0,.046,0m1.392.142c-.037-.155-.192-.2-.274-.318-.045-.066-.054-.158-.118-.217a.4.4,0,0,0-.128-.086c-.037-.016-.079.009-.114-.009s-.072-.064-.117-.078h-.048a.6.6,0,0,0-.205.072l0,.106-.079.051a2.1,2.1,0,0,0-.332-.225.568.568,0,0,0-.223.018c.079.178.111.37.2.543l-.04,0-.024,0-.07.05c-.04.01-.078-.012-.119,0l-.04.024c-.037.025-.089.064-.143.032-.109-.07-.109-.07-.2-.051.1.259.192.521.285.784a1.362,1.362,0,0,0,.346.012c.043.116.085.233.125.35a2.421,2.421,0,0,0-.247.018c-.1.165.077.3.045.462-.089.047-.127.069-.037.227a.581.581,0,0,0,.274.183c.093.028.15-.068.238-.069a.481.481,0,0,1,.245.079c.093-.006.176-.131.183-.147s0-.006-.021-.13c-.017-.054.053-.057.067-.1l.872.03c-.023-.051-.041-.108-.06-.16-.045-.092-.152-.142-.167-.253.1-.074.1-.074.089-.148a3.345,3.345,0,0,0-.266-.668c-.028-.074-.059-.146-.088-.221.186.01.206-.088.19-.168m20.079,52.192c.026-.042.052-.084.074-.126.921-1.609.906-1.688.873-1.9a16.817,16.817,0,0,1-1.072,1.648c-.325.023-.241.4-.446.528-.288-.075-.288-.075-1.089,1.076-.349.5-.459,1.158-.969,1.561l-.028-.031c-.33.375-.625.78-.942,1.164-.03.039-.058.079-.085.118-.134.191-.243.4-.383.587-.057.077-.113.153-.176.231-.156.222-.335.429-.485.659l.026.034c.046.006.1,0,.143.006-.106.169-.106.169-.106.2l.036.021v.047c.757-.188,3.917-4.729,3.948-4.776.051-.081.1-.161.156-.247s.091-.17.141-.252c.025-.042.047-.084.073-.126.1-.142.218-.274.311-.421m5.972-17.717c.021-.2.042-.394-.126-.533-.032.078-.071.179-.1.257-.083.021-.2.053-.277.076a1,1,0,0,0-.293.02c-.049-.057-.112-.135-.16-.195a3.966,3.966,0,0,0-.071-1.1c0-1.922-1.25-3.593-1.108-5.545-.007-.1-.007-.207-.013-.4,0-.051-.721-5.8-3.049-8.978a.5.5,0,0,0-.185.048c-.046.061-.112.143-.16.2l-.065-.007c-1.2-.522-2.183-1.492-3.548-1.652.115.58.277,1.15.343,1.74-.076.015-.17.038-.244.052-.055,0-.11-.006-.306-.013-.248-.233-.393-.576-.745-.7a7.825,7.825,0,0,1-.913-.1c-.08-.149-.1-.386-.217-.513-.539-.634-1.415-.634-2.053-1.091-.709-.509-.22-1.513-.84-2.056-.01-.082-.015-.191-.02-.274a.8.8,0,0,0,.333-.356,2.693,2.693,0,0,0-.711-.4,5.477,5.477,0,0,1-1.571.2,1.131,1.131,0,0,1-.39.3c-.581-.509-.581-.509-1.665-.319-.041.072-.092.17-.13.243a2.332,2.332,0,0,0-1.148.153,1.379,1.379,0,0,1-.121.489c-.323.073-.674-.021-.982.156a1.719,1.719,0,0,1-.252-.032l-.275-.059a1.537,1.537,0,0,0-.189,0,1.1,1.1,0,0,1-.98-.318l-.262-.148c-.225.4-.04.85-.164,1.26a2.8,2.8,0,0,1-.79-.011c.055.384.107.774.154,1.165a2,2,0,0,0-.927.118c0,.641-.07,1.283-.034,1.927.015.167.031.338.043.508a1.519,1.519,0,0,0-.768.108,1.149,1.149,0,0,1-1.046,1.158,15.352,15.352,0,0,0-1.36,2.794c-.071,0-.172-.011-.245-.018l-.244.049c-.071.044-.164.1-.241.15.1,1.5-.1,1.578-.686,1.8-.028.073-.063.172-.089.246a.874.874,0,0,0,.15.557c1.053.2,1.053.2,1.159.4-.282.569-.282.569-.284,2.483,0,.1,0,.2-.006.307,0,.233,0,.233-.546.788a10.753,10.753,0,0,0,.227,1.068c0,.1-.008.2-.008.552a7.549,7.549,0,0,0,2.1,2.394,1.361,1.361,0,0,0,1.434,1.729c1.085,2.124,1.153,2.251,2.151,2.115a2.015,2.015,0,0,0,.228-.5c.329-.135.679.022,1.01-.064l.156.006c.223,0,.223,0,.775.015.208.312.208.312,1.6.312.427-.863.787-.783,1.582-.608a.512.512,0,0,0,.154-.014c.009-.007.672-.7,1.24-.229.089,1.173.089,1.173.565,1.384.622.029,1.225.062,1.815.1-.049.3-.1.6-.155.939a26.316,26.316,0,0,0-.864,2.743.712.712,0,0,0-.369.285.835.835,0,0,0,.374.323c.161.4,0,.9.379,1.23-.131,1.237.548,2.5-.1,3.72-.031.09-.065.18-.158.484a1,1,0,0,0,.086.518l-1.876,3.1c-1.173.8-.929,3.469-.918,3.49a3.12,3.12,0,0,0-.445,1.251c-.23.4-.464.8-.737,1.254-.013.024-1.366,3.5-1.553,4.044-.032.033-.059.069-.145.16-.432.221-.432.221-.538.547.04,0,.082.006-.013.163l-.176.2c.013.077.027.183.042.259a3.835,3.835,0,0,0,.731,0,4.329,4.329,0,0,1,.514-.165,2.108,2.108,0,0,0,.823-.062c2.09-1.976,4.718-3.269,6.8-5.262l4.763-5.839c.07-.129.135-.258.308-.58a5.007,5.007,0,0,0,.2-.474c.256-.516.511-1.037.752-1.619.107-.955.678-1.759.866-2.69.017-.045.036-.092.074-.193.776-1.793,2.1-3.272,2.87-5.067,1.549-3.608,1.549-3.608,1.869-5.965m-40.9,10.561c0-.013-.059-1.468-.778-1.785l-.687-.007c-1.084-.328-1.084-.328-1.181-.97-.683-.437-.683-.437-1.165-.295-.291,0-.582,0-.954-.011-.931-.375-.931-.375-1.2-.263,0,.075,0,.176,0,.253-.2.118-.3.181-.77-.059-.008-.064-.012-.148-.016-.211.108-.065.245-.157.352-.226a3.822,3.822,0,0,0-1.693-.8.855.855,0,0,1-.326-.084.992.992,0,0,0-.839-.136c.009.226.017.453.022.681l-.606,0a3.388,3.388,0,0,1,.012-.4c.075-.093.181-.224.258-.322l.177-.135c-.033-.058-.083-.137-.119-.195,0,0-.4-.122-.817-.287h-.161a1.819,1.819,0,0,0-.32.037c.03.486.042.709-.569.614a3.421,3.421,0,0,1,0-.363l-.012-.216a1.028,1.028,0,0,0,.617-.119,1.981,1.981,0,0,0-.033-1.285c-.128,0-.3,0-.425,0a5.99,5.99,0,0,0-.1-.915c-.068-.266-.232-.492-.323-.748-.756-.182-.826-.388-.892-.586-1.1-.434-1.1-.434-1.168-.475-.37-.182-.726.06-1.093.041h-.257c-1.762-.344-1.758-1.054-1.757-1.356-.693-.368-.693-.368-.918-.51-.005-.05-.005-.1-.2-.175-.346-.225-.346-.261-.335-.694a1.567,1.567,0,0,0-.251.027c-.21.065-.408.157-.623.205-.171-.161-.171-.161-.208-.6.064-.02.153-.044.216-.064.013-.06.026-.14.034-.2a1.476,1.476,0,0,0-.581-.227l-.308.267c-.026,0-.048,0-.18-.055a1.46,1.46,0,0,0-.4-.083c-.189.215-.225.518-.4.741l-.233,0c-.315-.514-.324-.517-.809-.612a5.727,5.727,0,0,1-.771-.026,3.034,3.034,0,0,0-.414-.115.514.514,0,0,0-.189-.451c-.328-.094-.587-.335-.921-.415-.053.036-.124.083-.174.121a7.2,7.2,0,0,1-.786.864,6.845,6.845,0,0,1,.179,1.091c-.046.045-.11.1-.152.143a1.877,1.877,0,0,1,.182-2.471l-.064-.154a3.469,3.469,0,0,0-.357.023c-.381.126-.38.166-.341.641l-.73.015c-.864.6-.864.6-1.328.6.014.292.03.585.017.914-.16.173-.16.173-.565.3,0,.614-.864.96-.532,1.682l.2.033c.039.612.8,1.284.134,1.835-.077,1.12-.077,1.12-.456,1.187.035.154.083.36.126.514-.1.074-.22.18-.309.26,0,.093-.011.215-.015.3-.421.152-.432.349-.354.875a1.193,1.193,0,0,0-.461.074c.121.419.089.863.236,1.273a3.175,3.175,0,0,0,.6.02c.016.093.036.187.047.3-.029.058-.066.131-.093.188a.831.831,0,0,0-.348.206c.067.432-.255.89.076,1.308a1.838,1.838,0,0,0,.041.184c.264,1.251,1.775,1.526,2.122,2.71.025.1.052.206.092.329.313.409.4.955.795,1.317.764.7.736,2.388,2.185,2.2,1.338-.178,1.423,1.675,2.67,1.651.126.439.252.874.4,1.34a1.4,1.4,0,0,0,.106.4l-.005.062a2.136,2.136,0,0,0,.092.236c.03.053.067.126.094.181a.771.771,0,0,1,.015.219,1.6,1.6,0,0,0,.109.416l-.007.037a.79.79,0,0,0,.123.24c.022.06.056.141.079.2l.022.068a.8.8,0,0,1,.024.3,1.571,1.571,0,0,0,.216.373c.014.039.027.08.042.118s.027.078.042.132a5.02,5.02,0,0,0,.126,1.246,6.161,6.161,0,0,1,.293,1.671c.011.022.026.045.1.175.851,1.4,1.137,1.872.943,2.543a2.092,2.092,0,0,0,.174.29c.025.057.062.133.088.191.115.147.115.147.088.911.506.488.579,1.249,1.1,1.728.364.313.263.929.761,1.153l.218,0-.5-.777c.092,0,.184,0,.278,0,.057.086.115.173.176.272-.008.061-.021.144-.03.207.108.151.22.3.326.467a6.8,6.8,0,0,0,.548.882c-.118-.069-.27-.162-.383-.239l-.061-.079c-.043-.05-.1-.115-.146-.162.012.012.022.027-.064.042a1.118,1.118,0,0,0,.253.253,1.908,1.908,0,0,1,.606.54c-.195-.066-.353-.2-.548-.268a.472.472,0,0,1,.141.247,1.854,1.854,0,0,1,.027.2c.409.255.907.355,1.232.741a.747.747,0,0,0-.336.194c.013.011.026.024.176.151.1.073.233.168.335.235a1.582,1.582,0,0,1,.131.195c.243.131.448.323.682.463l-.027.068.147.064a.531.531,0,0,1,.2.045.622.622,0,0,0,.324.224l.051.047,1.527.813a.815.815,0,0,0,.12.089,5.124,5.124,0,0,0,.608.16.927.927,0,0,1,.212.053c.114,0,.233,0,.427-.021.029-.036.07-.085.1-.122a1.21,1.21,0,0,0-.6-.17.528.528,0,0,0-.3-.138s-.3-.219-.658-.513a1.441,1.441,0,0,0-.159-.14c-.15-.151-.324-.269-.473-.417a1,1,0,0,0-.147-.131c-.063-.072-.129-.144-.2-.219-.037-.049-.084-.113-.126-.162a.46.46,0,0,0,.256-.048,1.946,1.946,0,0,1-.247-.337c.051-.035.117-.087.164-.123-.049-.129-.117-.306-.164-.439.038-.048.076-.12.11-.172-.034-.049-.072-.1-.253-.164-.061-.013-.141-.027-.2-.041-.649-.438-.649-.438-.729-.536a.572.572,0,0,1-.062-.218c.04-.048.091-.114.13-.165.141,0,.278,0,.419,0a1.929,1.929,0,0,1-.264-.584,2.636,2.636,0,0,1-.089-.6l.217.022c.01-.062.02-.141.031-.2-.016-.029-.032-.057-.172-.175h-.037l-.027.012-.183.1c-.131-.092-.131-.092-.4-.471-.049-.091-.094-.183-.143-.274h.164a3.049,3.049,0,0,1,.411.2c.168,0,.333-.006.5-.007-.031-.052-.072-.125-.1-.179-.011-.03-.026-.061-.084-.216.022-.234.022-.234-.222-.555-.033-.072-.06-.143-.093-.217a4.052,4.052,0,0,0,.489-.026c.061,0,.121,0,.306-.017.055-.024.136-.056.2-.081.145,0,.291,0,.491.007.058.01.136.026.2.035.006-.363.282-.6.41-.914l.041-.189c-.033-.1-.063-.2-.09-.3a.99.99,0,0,1-.2-.024c-.016-.065-.04-.131-.084-.286-.225-.284-.622-.369-.818-.692.13,0,.257,0,.421,0,1.4.324,1.727.4,1.837-.1.361-1.732.687-1.917.811-1.985a.8.8,0,0,1,.041.4c.064.012.144.03.2.043a5.637,5.637,0,0,0,.468-.947c.042-.375.545-.38.6-.743.079-.528-.5-.942-.264-1.5a10.242,10.242,0,0,1,1.165-1.2c.2,0,.4,0,.669-.012a3.239,3.239,0,0,0,.456-.429c.5,0,.994.006,1.5-.039a.854.854,0,0,1,.141-.372,1.511,1.511,0,0,0,.555-.808,2.7,2.7,0,0,0,.36-.238,1.6,1.6,0,0,1,.24-.881c.136-.082.136-.082.341-1.161a.751.751,0,0,1,.081-.3,1.919,1.919,0,0,0,.231-.824,2.3,2.3,0,0,0-.021-.321c-.011-.06-.025-.139-.038-.2a1.836,1.836,0,0,0-.024-.416,1.647,1.647,0,0,1,.172-.833c.132-.039.132-.039.95-1.088a.645.645,0,0,0,.55-.3l.977-1.352c.258-.488.258-.488.274-.756m-21.354-18.452.036-.019c-.075-.077-.219-.031-.273-.151-.067-.15.024-.3.008-.444a2.821,2.821,0,0,1-.828.146l-.273,0c-.142-.029-.257-.137-.4-.148H3525c-.121.044-.16.194-.287.235l-.461.014c-.2,0-.254-.225-.422-.263-.209-.046-.323-.284-.554-.293l-.927-.037a2.114,2.114,0,0,0-.5.085c-.007.31-.017.619-.02.929.254.329.423.509.509.532.082,0,.17,0,.28,0,.233.01.233.01.425-.249.089-.119.424-.162.424-.162.157,0,.3.083.446.081s.3-.084.45-.081a3.648,3.648,0,0,0,1.031-.135.259.259,0,0,1,.274,0,3.773,3.773,0,0,0,.683.109c.1,0,.185,0,.278,0s.163-.1.242-.142m-7.029.452.027-.047c-.03-.1.039-.217-.052-.306-.063-.059-.147-.026-.217-.057s-.134-.113-.216-.151l-.07-.014-.712.018c.046.09.073.189.123.279l.063.078c.048.047.063.043.2.012.117-.028.333.153.335.154.042.04.042.084.04.189a.238.238,0,0,0,.019.129c.08-.021.163.043.245-.008.051-.031.051-.031.22-.276m-.705-1.766c.622-.015,1.26-.031,1.905-.043-.114-.219-.569-.875-.961-.938-.082,0-.166,0-.269.006-.269,0-.534.13-.8,0-.187-.087-.228-.3-.369-.43a5.9,5.9,0,0,0-.685-.44c-.259-.172-.259-.172-.295-.294-.025-.093-.049-.172-.206-.179-.176.014-.352.031-.532.041-.111.007-.111.007-.243.125-.106.1-.209-.015-.314-.024l-.5.015c-.428-.012-.428-.012-.491.048a.642.642,0,0,0,.821.966c.152-.1.232-.284.408-.355a1.533,1.533,0,0,1,.429.016c.005,0,.482.188.523.5.011.07.019.129.078.162.408.23.469.216.6.191.168-.029.208.037.278.175a.813.813,0,0,0,.625.46m36.985-32.524c-.06-.112-.123-.223-.185-.332-.058-.053-.1-.127-.174-.165a.879.879,0,0,0-.362-.091,2.084,2.084,0,0,0-.257-.517c-.123,0-.245-.009-.373-.011s-.136,0-.436.3c-.176-.019-.344-.087-.524-.093-.308-.01-.391.068-.443.119a.219.219,0,0,1-.165.064l-.32-.007c-.021-.054-.044-.108-.068-.162s-.046-.106-.066-.156c-.05-.069-.132-.1-.191-.16l-.147.035c.023.054.044.1.068.155a1.67,1.67,0,0,0-.62-.055c-.054,0-.467.088-.129.436.167,0,.312-.127.484-.063l.35.2c.058.057.045.138.079.2a2.043,2.043,0,0,0-.859-.019c.045.074.106.172.151.247a.354.354,0,0,1,.14-.034l.344.007.062.044c.039.109.079.222.117.335l.149.175.178,0c.169-.009.34-.036.512-.03l.189,0c.243-.015.376.21.582.273.006,0,.667.148.652-.191-.009-.137-.009-.137.1-.246.067-.063.175.052.223-.042.088-.17.088-.17.173-.2.127-.05.127-.05.766-.025m-19.343,11.09.055-.064c-.013-.069-.032-.167-.044-.238-.281-.009-.281-.009-.371-.059a1.718,1.718,0,0,1-.419-.331c-.042-.071-.065-.115-.133-.137a4.047,4.047,0,0,0-.491-.057,1.635,1.635,0,0,1-.229-.118c.225-.432.225-.432.486-.538.045-.019.23-.244.131-.4a.4.4,0,0,1-.055-.109.922.922,0,0,1-.177-.014.861.861,0,0,0-.329.13c-.095.095-.05.231-.1.339-.107.255-.107.255-.232.356-.013.007-1.284,1.158-1.326,1.217a.876.876,0,0,0-.159.343c-.024.1.018.19.006.284q.9-.006,1.831-.006c.157.014.223.035.373.234a1.34,1.34,0,0,0,.578.493.314.314,0,0,1,.158-.086c.063-.024.208-.075.2-.617-.009-.329-.009-.329.244-.626m-4.883-.733.017-.017c-.064-.028-.112-.082-.182-.108a.306.306,0,0,0-.126-.009c-.128.01-.143.011-.2-.014a.413.413,0,0,1-.238-.215c-.044-.1-.084-.121-.147-.121a.745.745,0,0,1-.171.01l-.266.117a.818.818,0,0,1,.2.115c.056.06.052.146.094.21l.044.046c.055.051.115.1.167.152s.078.11.125.156a.231.231,0,0,0,.117.071c.067.019.177.047.561-.393m15.871-18.374c-.132-.03-.269-.027-.4-.046a.787.787,0,0,0-.128-.009h-.007l.009.018a.652.652,0,0,1,.123.055.629.629,0,0,1-.2-.024l-.046.045h-.019a.27.27,0,0,0-.038.051l.035.057c-.128-.108-.128-.108-.15-.129a.672.672,0,0,1-.125-.068.974.974,0,0,0-.19-.045h-.052l-.062.014.064.045a.762.762,0,0,0-.131.008l-.052-.04h.022l.064-.01a.565.565,0,0,0-.227-.013c-.045,0-.088,0-.161,0a.445.445,0,0,0-.126.022h-.013l-.031,0h-.012l-.012,0-.066,0,.016-.061a1.871,1.871,0,0,0,.295-.011,1.217,1.217,0,0,0,.255-.015l.064-.008-.1-.018h-.05l-.042,0c-.088-.005-.178-.018-.266-.026l.008,0c-.021,0-.041,0-.1,0l-.074-.006h-.134l-.029,0-.11,0-.018-.006.026-.008c.108,0,.217,0,.3,0a1.293,1.293,0,0,0-.132-.009l-.035,0c-.038,0-.089,0-.126,0h-.029l-.2,0-.033,0h-.023a.457.457,0,0,0-.072.021l-.064,0a.379.379,0,0,1-.092-.01c-.04,0-.093,0-.13,0h-.146l-.065.013h0l.02,0v.006l-.029.022,0,0,0-.005v0h-.014l-.011,0h-.01l0,0h-.006l0,0h-.043l-.01,0-.017,0-.021.012v0l.025.014h.008l0,0h.049l.007,0,0,.006.015.009.005.018v.006l0,0-.008.008-.021.018-.03-.006h-.009l-.037-.009-.008,0h-.006l-.021-.007-.058-.018-.006,0,0,0v0l0,0-.009,0,0-.011h-.013l0,0,0,0,0,0h-.04a.656.656,0,0,0-.145,0l-.022.023h.011l0,0-.013.014v0l-.005.009-.014.017-.008.006-.026.021-.015.01h-.038l-.009,0,0,0-.006-.005.006-.007-.006,0v-.046h0l-.025,0,0,0,.015-.008.006,0-.006,0h-.053a.454.454,0,0,0-.072.025l-.058.025-.022.009-.018.006-.017,0-.1.035-.025.008-.049-.013a.552.552,0,0,0,.061-.02l.079-.019.025-.009.022-.006.015,0,.007,0,.018-.011.008-.006.016,0,.046-.016,0,0,.005,0,0,0-.015-.006-.043.006-.063.007-.028,0-.019,0-.019,0h0l-.023,0-.019,0-.051,0,0,0h-.052l-.016,0-.02,0-.05.006h-.085l-.015,0-.035.008-.022,0-.018,0v0h.024l0,0,0,.007-.012.006-.02,0-.013.006-.023.009.006.007h.032v0l-.012.013v0l-.009.014-.029.007h-.047v0h0l-.014-.011.01-.006,0-.006,0,0-.019-.007-.009,0h-.01l0-.012.008-.011.013,0,.015-.005.019-.008.008,0-.066,0-.024,0-.02,0-.031.005h-.016l-.078.011a.939.939,0,0,0-.121.029l-.014.006-.022.007-.022.008-.209.063-.076,0,0-.007.014-.007-.115,0-.1.02c-.082.017-.168.026-.248.042-.039.011-.093.021-.127.03l-.035.006-.066,0-.022,0h-.013l-.038.01-.038.007-.037.007h-.016l-.046.014-.039.007h-.009l-.02,0-.143.037-.035.011a.947.947,0,0,0-.127.035l.055.009-.012.01-.018.012h.024c.034,0,.085-.006.124-.012l.022,0h.055c-.039.014-.088.034-.128.05l-.02.012-.026.011-.024.013c-.043.019-.089.037-.178.076-.04.014-.1.031-.135.044l-.044.013-.093.01h-.015a.323.323,0,0,0-.146.019l-.074.015a.9.9,0,0,1-.127-.01.406.406,0,0,0-.162.015l-.054.019c-.014,0-.03.011-.069.028l-.067.019-.031.006-.106,0-.065.017c-.082.018-.167.009-.249.02l-.036.006-.034,0-.035.009-.044.013-.034.016-.039.015-.043.016-.036.008-.091,0c-.231.071-.242.09-.278.164l.058.025-.051.037c.056,0,.117,0,.179,0l.006.032.016,0-.009.036.064,0h.064l.1-.023.04-.009a1.463,1.463,0,0,0,.158-.012l.063-.008.052,0h.018c-.042.021-.082.045-.143.08l-.062.027-.037.01a1.237,1.237,0,0,0-.163.049h-.04l-.008-.01h-.027l0-.013-.015,0h-.056l-.057.006c-.035.01-.082.018-.119.025h-.027l-.092-.023-.033,0-.115.049c-.037,0-.076,0-.116,0a.208.208,0,0,0-.152.089l-.009.018c.053.015.07.02.142.1l0,.01-.065,0-.048.016-.037.021-.014.021.029.019-.015.021-.011.018-.024.021,0,.01.013.01.007.009.03.03.013.012,0,.02.069.021h.041l.042-.016.023-.022.087-.083.051,0a.538.538,0,0,1,.128.02l.009.01.015.006.008.01.029,0,.056-.043h.095l.005.016a.347.347,0,0,0,.124.012l.042-.02.036-.01.037-.011.031-.007h.023l.03,0,.043-.021.091-.028.048.043.01.009h.068l.067,0H3540l.047.041v.02l.018.01.02.006h.159l.021,0,.051.042.009.017.066,0h.05v.063l.053.023a.308.308,0,0,1,.062.009l.01.056a1.06,1.06,0,0,0-.148.2v.024l.009.022.017.006h.041l.017.018.028.01.017.019-.015.07-.014.023.018.069.015.022-.006.035,0,.026-.006.119-.009.108.015.017.031.075-.027.036c-.063.053-.07.061-.057.179-.029.047-.057.094-.089.141-.107.073-.107.073-.14.137h.153a.243.243,0,0,1-.106.114.4.4,0,0,0-.126.038c-.05.07-.064.161-.126.225h-.125c-.022.039-.046.079-.068.119l0,.07a.532.532,0,0,0,.129.033.613.613,0,0,1,.125.015l.064.016a2.172,2.172,0,0,0,.358-.022c.034-.065.034-.065.358-.109-.028.136-.071.307.187.314h.045a1.574,1.574,0,0,1,.2.17l0,.062-.044.063c-.046,0-.094,0-.167,0l-.067-.012h-.164c-.142.007-.229.011-.293-.11-.509-.051-.563-.017-.565.141l.1.1c-.125.142-.379.092-.469.3l.037.057c.3.032.3.032.41.2l.075.015a.6.6,0,0,1,.529-.166c.027-.079.056-.157.074-.234a2.268,2.268,0,0,1-.282-.02l-.014-.061a.537.537,0,0,1-.132-.015l.065-.066c.047,0,.1,0,.193,0,.1.075.1.075.3.108h.21a.272.272,0,0,1,.12.044l.009.07-.019.044c-.087.037-.137.124-.209.176a.138.138,0,0,0,0,.07c.088.1.088.1.1.171-.025.068-.044.136-.064.206a1.526,1.526,0,0,1-.273-.02c-.1.033-.178.132-.3.124h-.007a.4.4,0,0,1-.118-.015.288.288,0,0,0-.134.006.967.967,0,0,1-.184.342,1.008,1.008,0,0,1-.128-.045c-.43.218-.43.218-.444.262a.571.571,0,0,0-.015.1.408.408,0,0,0,.042.131c.278.063.3.142.294.163,0,.2-.319.137-.315.349l.034.069s.04.129.074.282c.165.057.295-.087.452-.079a.571.571,0,0,1,.131.014l.032.058c-.016.039-.044.091-.062.126a.529.529,0,0,0-.119.012l-.064.021c-.219.554-.219.554-.165.642.256,0,.42-.278.689-.23a1.945,1.945,0,0,1-.118.366c-.1.092-.25.089-.351.172a7.166,7.166,0,0,0,.466,1.315c.4.6.737.889,1,.867a.919.919,0,0,0,.148-.011.413.413,0,0,1,.225-.057h.066c.069.018.137.023.2.042.009.391.44.335.618.55.1.109.848.116.832-.229,0-.033,0-.064.008-.148.038-.433.758-.856.3-1.253-.006,0-.289-.274.167-.3a1.052,1.052,0,0,0,.146-.009.685.685,0,0,1,.213-.012.978.978,0,0,1,.41-.45,1.615,1.615,0,0,1,.055-.462l.046-.048a.417.417,0,0,0-.174-.368l.014-.068c.142-.088.325-.02.462-.126.093-.074.02-.18.047-.266l.545,0a.729.729,0,0,1-.008-.293.99.99,0,0,1,.3.036c-.008.217-.006.223.042.295.279-.027.477-.232.727-.337h.1a.6.6,0,0,0,.32-.062l-.011-.07c.083-.158.25-.238.348-.377.1-.039.1-.039.191-.241a.775.775,0,0,0,.148-.055.183.183,0,0,1,.011-.11c.172-.148.172-.148.124-.34v-.013l.027,0,.072.009.021.008.022.011.018,0,.048.029.022.006.048.042a.387.387,0,0,0,.212.031c.2-.014.363.126.559.123.252,0,.267-.36.525-.352.179.008.33-.139.513-.108.264.041.161-.36.372-.424l.392.008c.075-.04.075-.04.181-.2l-.032-.059-.084-.034-.089.1-.024.083-.07,0a.558.558,0,0,1-.069,0c-.143-.027-.222-.189-.381-.188h-.112c-.454-.02-.536-.163-.576-.235-.021-.043-.037-.088-.056-.13.519-.082.519-.082.61-.169.223.086.259.4.531.431l.048-.047.019-.116c.124-.057.268.019.4-.05-.169-.233-.443-.323-.652-.5-.179-.158-.457-.2-.563-.454l.064-.025c.285.163.285.163.305.163a.588.588,0,0,0,.116-.012l.069.01c-.055-.1-.055-.1-.126-.223a.476.476,0,0,1-.057-.114.284.284,0,0,0-.446-.091.355.355,0,0,1-.205-.049l.1-.09c-.026-.024-.026-.024-.243-.108l.015-.039.244.006c.031.048.064.1.1.146a1.432,1.432,0,0,0,.278-.012l.039-.058h.065a.672.672,0,0,1,.116.011c.132.054.132.054.211.023.056-.35-.466-.2-.667-.349l.013-.062c.274.059.355.024.392.009l.037-.072.064.023.087,0a.349.349,0,0,0,.123-.023c-.2-.188-.508-.214-.676-.447.021-.019.021-.019.163-.024a2.387,2.387,0,0,0-.178-.168.761.761,0,0,1-.2-.115.278.278,0,0,0-.047-.041c-.182-.094-.413-.056-.574-.2l-.025-.025c.04-.046.04-.046.173-.066h.1a.415.415,0,0,1,.248.083.352.352,0,0,1,.045.058c.045.077.051.087.264.219l.035-.019c-.122-.114-.249-.222-.379-.34l-.016-.061-.036-.026c-.11-.058-.11-.058-.32-.063-.02,0-.044,0-.086,0l-.066,0a.4.4,0,0,1-.108-.122l.06.02h.048l.065-.023a.814.814,0,0,0-.505-.092l.026.064a.4.4,0,0,1-.212-.162l-.008-.053c-.125-.092-.125-.092-.208-.16l.1,0-.062-.042v-.063c.01,0,.021,0-.006-.036-.165-.081-.169-.1-.192-.174l.065-.015-.06-.032-.009-.064-.073-.023c-.074,0-.148,0-.224-.007l-.059-.051c.039.006.094.019.13.023l.055-.018-.111-.067.043-.03c-.039-.013-.093-.026-.135-.038m-4.322-.153c.042-.009.084-.016.128-.026l-.115.01-.027,0,.122-.017.086-.017-.11,0-.061,0-.171.012.15-.017-.093,0,.107-.009-.008,0-.082,0-.192.012.116-.009-.1,0c-.061,0-.119.009-.177.009l.063,0-.239.011-.119.009-.026,0,.077-.009c-.15.01-.344.019-.491.027l-.26.024.072,0a3.146,3.146,0,0,1-.44.061c.053-.009.108-.016.155-.027l-.047,0,.286-.032-.1.005.082-.007-.133.007c-.143.014-.292.029-.434.045h-.044l.078-.011h-.027c-.126.01-.251.026-.378.037h-.065l-.229.03-.039,0-.252.034-.013,0-.029.008-.329.049a.971.971,0,0,1-.278.059l.044,0-.035.027.348-.058.2-.03.133-.012-.279.04-.344.059-.29.06a2.525,2.525,0,0,0,.62-.077l.047.009c.042,0,.082,0,.122,0l.3-.049.247-.038c.152-.024.3-.04.455-.06l.034,0-.074,0c-.189.027-.376.054-.563.084l.13-.006.007.006.022,0-.2.04-.113,0-.115.006-.146.022c-.11.01-.222.029-.33.04l-.066,0-.106.013c-.079.016-.159.035-.236.052l.023.01-.089.032-.2.06.074.02-.114.013-.071,0a1.374,1.374,0,0,0,.311-.144l-.044,0-.082-.01-.286.061-.165.051-.208.071-.234.1-.052.044.1.018c-.11.03-.227.039-.337.075-.092.029-.185.059-.273.09l.222-.123-.041-.018-.185.02-.17.024-.273.055-.274.086-.191.064.029.022c.053,0,.107,0,.158-.007l.181-.019-.342.078-.224.092c.1.02.1.02.7-.137l-.34.111-.377.1-.167.016,0-.078.057-.077c-.055,0-.11.009-.161.015a3.039,3.039,0,0,1-.841.273l-.335.1-.264.148-.019.064a2.938,2.938,0,0,0,.353-.084,4.159,4.159,0,0,0,.471-.019l.016.04a1,1,0,0,0,.238-.037c.048,0,.093,0,.108.016-.187.083-.187.083-.208.11a.51.51,0,0,0,.193-.022l.116,0a5.333,5.333,0,0,0,.795-.23l.188-.1-.289.069.267-.139.207-.03.337-.127.217-.108.1,0a2.54,2.54,0,0,0,.707-.21h.154a.389.389,0,0,0,.256-.115l-.012-.039h-.043l-.236.05-.2.044.184-.07c.187-.035.37-.079.553-.119h.1l-.113.051c.1.019.1.019.528-.072l.126-.077.15-.009-.118.054.127-.008.238-.038.2-.08.01-.027.144,0,.088,0,.2-.047.188-.025c.273-.051.544-.091.815-.143l.11-.006.143-.023.086-.032a3.285,3.285,0,0,1-.419.027l.17-.032.152-.015h.1c.035,0,.066,0,.123-.006.106-.011.212-.017.32-.031a2.463,2.463,0,0,0,.315-.039m-5.078.685.367-.1c.032-.042.032-.042.067-.057l.224-.057c.063-.016.135-.032.2-.046l.11-.035c-.072.013-.146.028-.219.038,0,0,.368-.108.687-.166a4.451,4.451,0,0,0,.468-.087c-.15.015-.264.033-.321.039l.042,0a2.053,2.053,0,0,1-.3.042l-.073,0c-.185.025-.366.065-.546.1l-.042,0-.1.015-.363.069-.218.038c-.117.022-.233.047-.35.071l.031,0-.368.084-.15.049.128-.016.187-.029.126-.012a2.348,2.348,0,0,1-.454.1l-.093,0-.233.046-.154.062-.326.1.019.041.22-.029v.034l.251-.066h.059a2.017,2.017,0,0,0,.264-.078l.295-.082-.057.041c.309-.072.309-.072.32-.072l0,.017a2.449,2.449,0,0,0,.3-.067m-2.742.7a2,2,0,0,0,.593-.2l-.265.042-.434.131.106.029m-.066.8h.007l.3-.182-.108-.07-.14-.058-.359.083-.454.087-.234.029-.135-.047-.233.02.212-.159.361-.159.3-.141c-.063,0-.129,0-.191.009a3.107,3.107,0,0,0-1.08.445l-.491.186-.2.138-.133.139.306-.034c.1-.031.224-.07.318-.1-.046.048-.09.1-.135.148l0,.014a.692.692,0,0,0,.263-.011c.111,0,.227-.009.339-.012l.247-.054.227-.088-.065.093c.593-.05.593-.05.761-.152a.812.812,0,0,1,.319-.126m-3.916.428.119-.007.2-.108-.315.115m1.033-.174.423-.181.09-.087.231-.123-.159.028-.376.1-.3.117-.237.152.131-.006-.038.067.237-.066m1.453-.646.371-.117.236-.092.193-.1c-.044,0-.09.006-.134.007l.061-.043-.2.033-.376.129-.147.1-.12.088.12,0m1.56-.541c.085-.029.178-.059.268-.088l-.142.007c-.043,0-.086,0-.128,0l-.318.083c-.075.024-.153.049-.224.074l.183-.017.169-.033.192-.031m.361-.172.247-.068.233-.09-.077-.01.245-.086-.252.056-.275.082-.484.148.022.02.158-.022.183-.03Zm1.485-.475.2-.034.394-.085.074-.021-.053,0c-.125.023-.246.048-.365.07h.062l-.313.067m-2.393.621.289-.079.335-.1.175-.06.33-.093.106-.041.151-.048-.117.017.2-.055.181-.052-.112.017-.315.053-.286.07.083-.011-.108.034-.361.094-.081,0-.312.09.087-.014-.175.057.208-.047.02.006.062.009-.345.124-.011.027m-.471.072.19-.041.2-.074-.132.016-.313.1.059,0Zm-1.152.56a1.414,1.414,0,0,0,.371-.189,1.793,1.793,0,0,0-.275.078l.219-.117-.1.007a3.54,3.54,0,0,1-.743.317l-.01-.01,0-.007.417-.2-.1.006-.342.125-.35.141.2-.114.535-.207.12-.081-.519.175c-.216.086-.427.2-.641.293l-.053.071.2-.052.125-.026-.2.1-.456.209.218-.065.156-.015.147-.031.314-.127c.15-.063.3-.122.45-.182.1-.038.214-.066.316-.1m-1.806.421c.136-.053.132-.077.132-.078h0c-.079.008-.143.059-.223.068l-.3.128a1.288,1.288,0,0,0,.393-.118m2-.762.213-.051.454-.156.2-.075a8.055,8.055,0,0,0-.863.282m-2.1,4.816.384-.264.116-.27a3.673,3.673,0,0,0-.538.042,4.722,4.722,0,0,0-.521.305l-.075.237.258.03.376-.08m.245-3.285c.512-.218.512-.218.512-.282l-.016,0-.173.006-.013-.068c-.286.027-.286.027-.348.054a2.982,2.982,0,0,1-.641.275c-.223.112-.44.227-.654.345s-.4.249-.608.372l.271-.054.361-.136.371-.2.1.048.344-.131.489-.225m-2.653.94.5-.246.26-.184.2-.165.084-.106a1.859,1.859,0,0,0,.837-.406l.157-.1-.161.019-.322.147-.059,0,.025-.061-.236.061-.28.145-.223.159c-.571.264-.571.264-.63.261a1.86,1.86,0,0,1,.187-.148l-.125.018-.328.159-.122.125-.094.094.031.059c-.438.3-.438.3-.41.387a3.863,3.863,0,0,0,.452-.191l.259-.029m.023-.651.469-.211.138-.088-.077-.052a2.515,2.515,0,0,0-.321.124l-.2.143c-.014.013-.068.046-.319.2l.311-.118m-.023-.163.331-.138-.114.02-.257.1.04.021Zm5.76-2.1c.236-.059.236-.059.449-.127l-.1.015-.193.038-.448.1.065-.007.095-.007c.041,0,.08-.007.122-.012l.015,0m-.753.191.325-.081-.05,0-.111.01-.19.039-.315.078-.551.165-.02.015.179-.044.132-.017.28-.078.247-.076.074-.014m-.491.069.026,0,.421-.116.146-.046-.071.011-.319.087-.2.06Zm-2.269.958.675-.244.191-.086-.066,0-.289.1.071-.051.31-.134c.1-.037.209-.073.313-.107l.342-.122-.077.008-.254.074-.149.037-.249.082a6.61,6.61,0,0,1-.676.25l.015.02a1.036,1.036,0,0,1-.341.1l-.112.011.183-.087.44-.173.116-.06-.067.008.162-.068.021-.016-.276.071-.5.161-.369.117-.411.136-.387.143h.074l-.037.039.147-.034.234-.066.017.033.091-.008a2.187,2.187,0,0,1-.3.084l-.1.009-.257.083-.273.112-.1.058.142-.014.426-.127.467-.158.17-.033c.048,0,.1-.008.147-.012l.155-.013.387-.134m.956-.568.033.012.32-.1a.646.646,0,0,1-.139.025l.04-.014-.254.08m-1.954.589.7-.236-.244.067-.435.143-.021.026Zm2.334-.73.46-.129.085-.039-.378.1-.082.011c-.043-.01-1.324.377-1.337.382l-.06.007-.29.084-.386.132-.169.069.371-.118-.226.084.238-.073.275-.091.084-.018.415-.131.31-.09-.4.132.172-.046.264-.071.651-.2m-6.226,3.551.277-.156.106-.156-.021-.161.318-.262.5-.27.182-.16.632-.339.342-.209.095-.114-.135.01c-.168.08-.337.16-.5.241l-.324.174-.4.233-.249.11-.033-.01.141-.1.336-.177.257-.144.372-.222-.07-.007-.305.157-.227.127c-.04,0-.079.007-.118.011l-.247.118-.158.039.294-.136.359-.163-.048-.007.055-.064-.122.023-.349.161-.014-.022.238-.1.41-.2.051-.038-.1.012-.378.147-.225.08-.211.067-.36.142-.418.207-.4.165-.25.125.065-.01-.2.119.238-.087.173-.044-.2.131-.268.094-.223.077-.294.135-.14.131c.047,0,.092-.01.137-.016l.22-.048a.351.351,0,0,1,.132,0c-.112.119-.112.119-.381.256l-.222.01c-.073.007-.146.016-.218.021l-.443.187-.507.34.142,0,.149-.014-.463.33-.123.136c.072-.007.142-.015.218-.02l.24-.038.4-.175.3-.1.439-.191.256-.109-.117.114.158-.041-.11.229.165,0,.227-.047.413-.233.151-.181.136-.024.254-.062m-2,.781.363-.234-.443.143-.593.255.071.059.37-.158.232-.065Zm3.334-2.53.342-.111.394-.176.372-.2-.012-.017-.349.117.132-.08.17-.091-.031-.013-.226.063-.329.13-.586.243-.9.386-1.236.548-.193.131-.741.4.516-.24.1-.016.374-.165c.613-.292,1.569-.689,1.576-.692l.629-.222m7.629,13.318.289-.228-.228-.222.23-.223.131-.469-.6-.081-.053-.273-.665,0-.592.279-.4.222-.26-.108.207-.331.65-.2.756-.163.385-.271-.454-.024-.392-.213-.544-.152-.264-.315-.3-.313-.068-.283.258-.053.15-.207-.209-.479-.243-.52-.24-.9-.02-.4-.664.53c-.067.152-.131.3-.2.459l-.542.179-.436.325-.431-.017.041-.3-.186-.219-.473.105.37-.513c.115-.224.23-.446.343-.665l.166-.349-.476-.016-.232-.248-.124-.356-.342-.37-.324.181-.476-.012-.109-.128-.536.011-.394.251-.053.359-.41.487-.15.327-.1.447c-.1,0-.2.006-.294.007l-.255.438-.341.248.146.194.2.312-.21.579c-.119.221-.238.447-.356.674l-.546.479-.607.381-.617.1.023.584c-.128.255-.251.513-.375.772l-.042.444-.262.366-.469.466-.619.1-.028-.645-.118-.549c.076-.158.159-.315.238-.47l.234-.654.365-.543-.616-.082-.472-.012-.142-.179-.479-.165-.024-.306-.262-.32-.245-.339-.773.229.1-.328.318-.746-.131-.186.051-.285.813-.9.846-.667.791-.581.531-.216.544-.3.178-.3-.3-.111-.244-.194.425.084.305.132.27-.073.355-.321.222.154.287-.074.257-.25.246-.112.4-.333-.231-.032-.3-.027.066-.178-.158-.188.233.01.258.126.156.112.4-.133.5-.3.042-.228c.092,0,.183-.006.279-.009l-.051.21-.378.242-.568.449c-.175.184-.353.373-.527.563l-.417.14-.152.252.3.012c-.069.08-.139.159.021.258.075-.023.172-.056.247-.078l.383-.3.405.006.194.038.13.121c.114,0,.23-.007.35-.011l.3-.321-.276-.076.184-.393-.362-.03-.02-.3-.207-.073c.073-.074.145-.148.22-.221l.2.052.27-.164.14-.177c.105,0,.2-.006.308-.01l.367-.257.535-.258.3-.21.07-.219.249-.363.317-.059.366-.269.1-.255-.1-.128-.079-.192c.123,0,.243-.009.366-.011l.2-.132.229.024.042.143.326-.024.355-.074.051-.24.215-.052-.07.272.249.024-.161.267.165.046-.075.2.139.1-.113.262.191.1.006.27-.223.332-.654.369-.606.377-.113.357-.627.091-.229-.075c-.1,0-.207.006-.311.007l-.635.316c-.088.108-.177.218-.269.329l.4.076.4-.033.238-.186.248-.109.2.058.359.135.141.457-.066.255.084.324.423-.008.2.437.672.013.348.2.18-.269-.427-.543-.163-.234.007-.256.326.23.577.4.306.237c.067-.133.13-.265.2-.4l.416-.348-.278-.208.205-.523-.412-.178-.191-.634.314-.177.3-.159.421.579.074.38.32.058.351-.445.522-.164.16-.176c.091,0,.193,0,.289,0l.226-.2.129-.285c-.186,0-.373,0-.561,0,.031-.05.058-.1.089-.152l-.185-.239-.207-.035-.247-.141c-.088,0-.176,0-.262,0l.064-.2.037-.177-.433.007-.158-.013c.076-.1.15-.2.232-.3l.3,0,.264-.14-.316-.1.147-.117.214-.037-.054-.194-.224-.077.274-.181-.187-.118-.344.019.094-.141-.247-.01-.072-.029.356-.143-.187-.084-.452.095.045-.234.128-.132-.186-.011.179-.157-.172-.106c-.134,0-.271.006-.4.01l-.226.129-.245.033-.134-.037-.281.159-.215.021.271-.2.379-.186.183-.24.26-.209-.32.009-.4.162-.238.02-.323.112-.391.222-.239.241-.333.161-.259.311-.209.035.173-.264.467-.348.341-.226.531-.235.52-.191c-.093,0-.186,0-.278.009l-.368.05-.733.275-.831.4-.833.519.179.054.171.009-.209.2-.156-.039-.345.086-.166.251.282-.01.227-.071-.024.159.189.133-.339.092-.311.238-.041.166-.833.488-.529.352-.518.288-.062-.109.345-.417.442-.257.146-.378-.648.311.352-.524-.031-.064.4-.266.379-.292-.1-.025.349-.237.193-.25-.24,0-.293.154-.143.021-.526.256-.263.207-.288.165-.192.273-.051.177-.436.262-.149-.058-.346.3.246-.028.531-.225c-.145.106-.286.213-.425.321l-.868.348-.576.486.051-.253.51-.337-.168.009.4-.306.157-.008.568-.438.017-.239-.53.312-.393.15-.153.323-.436.207-.409.264-.664.072-.01-.187-.133-.041.136-.255-.465.212-.6.245-.389.313-.729.508.665-.588.078-.2-.419.136-.365-.06.251-.171.4-.165.253-.285-.178.035.142-.258.309-.217-.049-.031-.113.03-.371.2-.163.064.707-.424-.72.391.016-.039.845-.488.094-.069-.621.329-.421.223-.15.07-.352.181-.465.261.672-.381.243-.126.237-.119.331-.178.038-.027-.354.178-.479.255-.063.032-.019.009c-1.244.728-2.848,1.791-4.05,2.583a42.462,42.462,0,0,0-5.322,4.458l-.586.584.1-.1-.2.215-.329.351-.1.127-.329.347-.154.21-.3.326-.073.117,0,.037-.328.38-.305.4-.378.466-.335.442.039.033-.394.531-.291.49-.246.37-.1.267-.018.18.006.125-.182.294-.112.357-.1.31-.392.715c-.116.192-.238.386-.355.579l.132-.354.2-.466.172-.3.073-.274v-.107l.306-.473-.088.019.092-.224.025-.106v-.073l-.106.074-.212.374-.085.217-.139.312-.171.5-.292.565-.372.728-.348.593-.471.82c-.167.307-.328.617-.488.927l-.184.235c-.1.207-.205.413-.31.62l-.223.638-.316.631-.2.5-.116.42-.275.645-.117.526-.029.419-.249.919,0,.363-.13.481-.053.545c.066-.008.128-.017.192-.026l.03.367.137.289.031.48-.112.6-.062.6-.123,1,.068.42.1.489-.015.362-.225.347.037.4.145.383.2.421.1.471-.09.412.018.334.2.2.171.432.121.366-.031.451.146-.159.085-.5-.037-.557-.183-.209.029-.486-.178-.389v-.622l.006-.587-.12-.427.05-.582-.15-.166.036-.716-.069-.594.163-.794.169-.048.179.225.04.419-.138.687.086.886.157.707.183.5.113.5-.035.59.253.348.154.548.108.588.3.806.088.716.181.326-.221.284-.086.463.4.667.349.554.45.243.48.518.583.432.672.545.56.245.367-.057.113-.318.419-.1.476.366.545.635.307.531.449-.019c.058,0,.117,0,.176-.006l.259.144.3.567.58.249.011-.387.327.221c1.034,1.823,1.034,1.823.973,2.191l.213.3.236-.159.345.213c.716.814.716.814,1.037.77l.9.539.489.252-.083-.6.2-.386.835.055.118.374.268-.04.116-.5-.333-.45c-.289.01-.579.015-.863.022l-.559-.024-.812-.052-.392-.33-.55-.708-.006-.578c-.011-.254-.023-.509-.031-.766l.139-.972c-.005-.218-.009-.436-.01-.656l-.261-.5-.5-.337-.739.1-.514-.139-.557.331-.366-.332.339-.4v-.315c0-.127,0-.256.007-.387l.138-.434.2-.7c.009-.257.022-.516.034-.775l.332-.314.083-.579-.227-.217-.793.1-.493.129-.236.547-.236.815-.251.744-.4.094-.563.257-.576.144-.247-.533-.449-.362-.135-.61-.269-.79-.074-1.36.025-.979.3-.765.22-.863-.094-.876.528-.865.344-.053.414-.452.436-.527.472.087.324.166.323-.194.169.461.443-.018.355-.051-.018-.358.225-.586.562-.053.4-.086.716.077.207.5.245-.008.206-.3.228-.08.288.425.256.534c-.03.208-.058.416-.085.626l.147.359.038.4.22.291.092.438.293.213-.02.483.282.106.208-.338.193-.528-.1-.622-.06-.952-.262-.831c.051-.364.106-.727.221-1.265.074-.173.179-.4.259-.577l.448-.8.527-.257.686-.615.633-.467.576-.257.176-.452.464-.287-.2-.747-.185-.336.2-.409-.149-.369.46-.244.225.533.326-.546.337-.473.329-.307.5-1c.261,0,.523-.009.789-.015l.58-.334.612-.075-.057-.389.169-.8.562-.611c.156,0,.315,0,.472-.008l.24-.351.619.024.654-.352.475-.476c1.071-.037,1.071-.037,1.421.171-.066.049-.152.11-.216.16a6.375,6.375,0,0,0-.859.049c-.546.361-.546.361-.567.814l.308.155.444-.321.314-.193.561-.165.626-.284.59-.132.551-.533.514-.372.145-.426-.622.153-.542.648-.691.036-.494-.269-.463-.456-.1-.786.6-.393.135-.622-.709-.052-.848.244-1.006.52-1.076.859-.8.5.392-.462.536-.494.33-.242-.585-.17c.267,0,.537-.011.81-.013l.326-.422.568-.391.548-.033.368-.475.506-.178.717-.008,1.319-.042.65.112.544-.035.626-.38.6-.516.894-.09.485-.172"/><circle class="b" cx="44.556" cy="44.556" r="44.556" transform="translate(3500.751 4819.103)"/></g></g></svg>