<svg xmlns="http://www.w3.org/2000/svg" width="170.126" height="38.278" viewBox="0 0 170.126 38.278"><defs><style>.a{fill:#002f49;}.b{fill:#003255;}.c{fill:#00406a;}</style></defs><path class="a" d="M2739.983,4069.234a2.866,2.866,0,0,0-1.59-4.887l-9.672-1.406a1.272,1.272,0,0,1-.953-.692l-4.324-8.765a2.867,2.867,0,0,0-5.141,0l-4.324,8.765a1.263,1.263,0,0,1-.953.692l-9.672,1.406a2.864,2.864,0,0,0-1.59,4.887l7,6.82a1.271,1.271,0,0,1,.363,1.121l-1.652,9.633a2.819,2.819,0,0,0,.625,2.324,2.892,2.892,0,0,0,3.535.7l8.649-4.547a1.291,1.291,0,0,1,1.179,0l8.653,4.547a2.815,2.815,0,0,0,1.332.336,2.87,2.87,0,0,0,2.2-1.032,2.815,2.815,0,0,0,.625-2.324l-1.652-9.633a1.271,1.271,0,0,1,.363-1.121Zm0,0" transform="translate(-2700.898 -4051.886)"/><path class="b" d="M2806.087,4069.234a2.866,2.866,0,0,0-1.59-4.887l-9.672-1.406a1.272,1.272,0,0,1-.953-.692l-4.324-8.765a2.867,2.867,0,0,0-5.141,0l-4.324,8.765a1.263,1.263,0,0,1-.953.692l-9.672,1.406a2.864,2.864,0,0,0-1.59,4.887l7,6.82a1.271,1.271,0,0,1,.363,1.121l-1.652,9.633a2.819,2.819,0,0,0,.625,2.324,2.892,2.892,0,0,0,3.535.7l8.649-4.547a1.291,1.291,0,0,1,1.179,0l8.653,4.547a2.815,2.815,0,0,0,1.332.336,2.87,2.87,0,0,0,2.2-1.032,2.815,2.815,0,0,0,.625-2.324l-1.652-9.633a1.271,1.271,0,0,1,.363-1.121Zm0,0" transform="translate(-2700.898 -4051.886)"/><path class="c" d="M2870.159,4069.234a2.866,2.866,0,0,0-1.59-4.887l-9.672-1.406a1.272,1.272,0,0,1-.953-.692l-4.324-8.765a2.867,2.867,0,0,0-5.141,0l-4.324,8.765a1.263,1.263,0,0,1-.953.692l-9.672,1.406a2.864,2.864,0,0,0-1.59,4.887l7,6.82a1.271,1.271,0,0,1,.363,1.121l-1.652,9.633a2.82,2.82,0,0,0,.625,2.324,2.892,2.892,0,0,0,3.535.7l8.649-4.547a1.291,1.291,0,0,1,1.179,0l8.653,4.547a2.815,2.815,0,0,0,1.332.336,2.87,2.87,0,0,0,2.2-1.032,2.815,2.815,0,0,0,.625-2.324l-1.652-9.633a1.272,1.272,0,0,1,.363-1.121Zm0,0" transform="translate(-2700.898 -4051.886)"/></svg>