<svg xmlns="http://www.w3.org/2000/svg" width="101.012" height="85.003" viewBox="0 0 101.012 85.003"><defs><style>.a{fill:#00406a;}.b{fill:#002037;}</style></defs><g transform="translate(-2729.497 -4821.157)"><path class="a" d="M2790.452,4835.744a18.356,18.356,0,0,1,8.542,13.641,14.809,14.809,0,1,0-8.542-13.641Z"/><path class="b" d="M2780.744,4866.077a14.812,14.812,0,1,0-14.815-14.809,14.81,14.81,0,0,0,14.815,14.809Z"/><path class="b" d="M2787.03,4867.087h-12.57a18.994,18.994,0,0,0-18.97,18.97v15.376l.042.239,1.059.333a86.41,86.41,0,0,0,25.79,4.155c13.942,0,22.018-3.971,22.522-4.229l.985-.5h.106v-15.376a18.986,18.986,0,0,0-18.964-18.97Z"/><path class="a" d="M2811.539,4851.8h-12.471a18.251,18.251,0,0,1-5.638,12.717,22.53,22.53,0,0,1,16.1,21.568v4.734c12.316-.451,19.413-3.94,19.881-4.174l.985-.5h.11v-15.376a18.989,18.989,0,0,0-18.97-18.964Z"/><path class="a" d="M2754.751,4850.787a14.718,14.718,0,0,0,7.878-2.289,18.362,18.362,0,0,1,6.894-11.695c.013-.276.044-.547.044-.831a14.815,14.815,0,1,0-14.816,14.815Z"/><path class="a" d="M2768.059,4864.514a18.282,18.282,0,0,1-5.633-12.649c-.462-.031-.923-.068-1.39-.068h-12.569a18.985,18.985,0,0,0-18.97,18.964v15.376l.036.24,1.059.332a88.963,88.963,0,0,0,21.365,4.014v-4.641a22.53,22.53,0,0,1,16.1-21.568Z"/><path d="M2768.059,4864.514"/></g></svg>