<svg xmlns="http://www.w3.org/2000/svg" width="72.791" height="72.791" viewBox="0 0 72.791 72.791"><defs><style>.a{fill:#002f49;}</style></defs><path class="a" d="M3105.456,4352.355a2.135,2.135,0,0,1-2.133-2.132,2.132,2.132,0,1,0-4.265,0,6.408,6.408,0,0,0,4.288,6.038v1.867a2.133,2.133,0,1,0,4.265,0v-1.882a6.4,6.4,0,0,0-2.155-12.421,2.133,2.133,0,1,1,2.132-2.132,2.133,2.133,0,0,0,4.265,0,6.409,6.409,0,0,0-4.242-6.024v-3.131a2.133,2.133,0,1,0-4.265,0v3.116a6.4,6.4,0,0,0,2.11,12.436,2.133,2.133,0,0,1,0,4.265Zm0,0" transform="translate(-3077.613 -4296)"/><path class="a" d="M3086.306,4365.308c4.437,2.376,10.53,3.483,19.172,3.483,7.032,0,12.325-.729,16.437-2.278a6.384,6.384,0,0,0,4.889,2.278h17.2a99.437,99.437,0,0,1,6.4-23.458,6.383,6.383,0,0,1,0-8.53,6.405,6.405,0,0,0-6.4-6.4h-17.2c-.208,0-.413.011-.616.031a29.187,29.187,0,0,0-7.412-6.434,6.39,6.39,0,0,0-2.03-10.041l3.555-10.9a2.132,2.132,0,0,0-2.027-2.794h-6.764a6.4,6.4,0,0,0-12.064,0h-6.763a2.132,2.132,0,0,0-2.027,2.794l3.555,10.9a6.391,6.391,0,0,0-2.028,10.044,30.421,30.421,0,0,0-14.57,25.593c0,7.337,2.925,12.622,8.693,15.71Zm59.833-19.975a2.135,2.135,0,0,1-2.133,2.132h-17.2a2.132,2.132,0,1,1,0-4.265h17.2a2.136,2.136,0,0,1,2.133,2.133Zm0,8.53a2.136,2.136,0,0,1-2.133,2.133h-17.2a2.133,2.133,0,1,1,0-4.265h17.2a2.135,2.135,0,0,1,2.133,2.132Zm-2.133,10.663h-17.2a2.132,2.132,0,1,1,0-4.265h17.2a2.132,2.132,0,1,1,0,4.265Zm2.133-27.723a2.135,2.135,0,0,1-2.133,2.132h-17.2a2.133,2.133,0,1,1,0-4.265h17.2a2.136,2.136,0,0,1,2.133,2.133Zm-32.192-14.928h-17a2.133,2.133,0,0,1-.006-4.265h17.073a2.133,2.133,0,0,1-.006,4.265h-.062Zm-12.734-17.345a2.132,2.132,0,0,0,2.133-2.132,2.133,2.133,0,1,1,4.265,0v4.265a2.132,2.132,0,0,0,4.265,0v-2.133h3.459l-2.874,8.815H3098.5l-2.874-8.815Zm-3.849,21.61h16.22a24.089,24.089,0,0,1,8.628,6.215,19.294,19.294,0,0,1-1.806,12.978,6.38,6.38,0,0,1,0,8.53,6.381,6.381,0,0,1,0,8.53c0,.044,0,.087,0,.131-3.608,1.362-8.413,2-14.932,2-7.912,0-13.365-.946-17.159-2.978-4.394-2.352-6.441-6.149-6.441-11.95a25.875,25.875,0,0,1,15.486-23.458Zm0,0" transform="translate(-3077.613 -4296)"/></svg>